<?xml version="1.0" encoding="UTF-8"?>
<!-- Created with Inkscape (http://www.inkscape.org/) -->
<svg width="420" height="420" version="1.1" viewBox="0 0 111.125 111.125" xmlns="http://www.w3.org/2000/svg" xmlns:cc="http://creativecommons.org/ns#" xmlns:dc="http://purl.org/dc/elements/1.1/" xmlns:rdf="http://www.w3.org/1999/02/22-rdf-syntax-ns#">
 <metadata>
  <rdf:RDF>
   <cc:Work rdf:about="">
    <dc:format>image/svg+xml</dc:format>
    <dc:type rdf:resource="http://purl.org/dc/dcmitype/StillImage"/>
    <dc:title/>
   </cc:Work>
  </rdf:RDF>
 </metadata>
 <g transform="translate(0 -185.87)">
  <path d="m-226.91 121.35c3.02 0.15386 6.0308-0.0289 9.0259-0.41374 3.4579-0.28767 6.7896-1.2598 10.083-2.2938 1.9207-0.60071 3.7744-1.3239 5.7694-1.6455 1.5248-0.24432 3.0128-0.62963 4.5566-0.79609 1.0154-0.0763 0.50761-0.0446 1.5232-0.0952l-9.0102 6.6398c-0.98895 0.0851-0.49542 0.0345-1.4806 0.1518-1.512 0.23638-2.9933 0.62083-4.5079 0.84372-1.9062 0.43398-3.7232 1.1545-5.6081 1.6684-3.3131 0.97666-6.6798 1.7719-10.129 2.0813-3.0921 0.32923-6.1868 0.46803-9.2964 0.45178l9.0738-6.5925z" fill-opacity="0" stroke-width=".26458"/>
  
  <g transform="translate(.75595)">
   <path d="m47.481 297.16c-16.068-2.6002-29.37-11.117-38.356-24.558-3.6204-5.4157-6.5177-12.467-8.02-19.52-0.72437-3.4004-0.76298-3.951-0.76298-10.883 0-6.9315 0.038574-7.4822 0.76298-10.883 1.9354-9.0854 5.8718-17.404 11.442-24.181 1.9207-2.3368 6.1168-6.5061 8.3878-8.3343 6.5885-5.3041 14.918-9.1859 23.747-11.067 3.3999-0.72447 3.9505-0.76308 10.881-0.76308 6.9306 0 7.4812 0.0386 10.881 0.76308 14.871 3.1689 27.139 11.471 35.556 24.063 3.6204 5.4157 6.5177 12.467 8.02 19.52 0.72437 3.4004 0.76299 3.951 0.76299 10.883 0 6.9315-0.0385 7.4822-0.76299 10.883-3.1684 14.873-11.469 27.142-24.06 35.561-5.3792 3.597-12.481 6.5244-19.379 7.9882-3.0625 0.64989-4.1748 0.7413-10.055 0.8264-4.8165 0.0697-7.2722-0.0113-9.0461-0.29834zm16.35-8.494c15.679-2.918 28.801-13.357 35.03-27.869 1.4713-3.4274 2.5116-6.837 3.1943-10.469 0.652-3.4688 0.652-12.786 0-16.255-3.7104-19.741-18.628-34.661-38.366-38.371-3.4684-0.65208-12.784-0.65208-16.253 0-19.67 3.6981-34.756 18.746-38.327 38.23-0.6091 3.3234-0.80037 10.164-0.38393 13.732 2.4626 21.095 18.887 38.024 40.002 41.232 3.3356 0.50682 11.843 0.37802 15.103-0.22865z" fill="#fe0202"  stroke-width=".27549"/>
   <g transform="translate(-1.1536 -1.5599)">
    <path d="m25.354 275.66c-1.9784-0.90927-3.1739-2.5795-3.1739-4.4344 0-1.089 0.19548-1.5929 1.0598-2.7322 0.58292-0.76833 6.2504-6.4682 12.595-12.666 6.3441-6.1981 11.535-11.46 11.535-11.694 0-0.23358-5.2376-5.5628-11.639-11.843-12.878-12.633-12.742-12.462-11.984-15.114 0.74137-2.591 3.4022-4.0094 6.1674-3.2874 1.1275 0.29441 2.5988 1.6261 12.947 11.718 6.4212 6.2624 11.796 11.386 11.944 11.386 0.14799 0 5.5228-5.1238 11.944-11.386 10.348-10.092 11.82-11.424 12.947-11.718 2.7652-0.722 5.426 0.6963 6.1674 3.2874 0.75861 2.6513 0.89421 2.4803-11.984 15.114-6.4015 6.2799-11.639 11.609-11.639 11.843 0 0.23357 5.1906 5.4959 11.535 11.694 6.3441 6.1981 12.012 11.898 12.595 12.666 1.3367 1.7619 1.4596 3.514 0.35406 5.0446-1.4532 2.0119-2.9843 2.7238-5.1872 2.4117-1.3337-0.18893-1.6318-0.45534-13.76-12.299-8.0156-7.8269-12.602-12.105-12.977-12.105-0.37541 0-4.8992 4.2286-12.826 11.989-12.561 12.297-12.882 12.565-15.016 12.537-0.40095-5e-3 -1.1226-0.1905-1.6038-0.41162z" fill="#fe0202" stroke-width=".28845"/>
   </g>
  </g>
 </g>
</svg>
