<?xml version="1.0" encoding="UTF-8"?>
<!-- Created with Inkscape (http://www.inkscape.org/) -->
<svg width="402" height="402" version="1.1" viewBox="0 0 106.3625 106.3625" xmlns="http://www.w3.org/2000/svg" xmlns:cc="http://creativecommons.org/ns#" xmlns:dc="http://purl.org/dc/elements/1.1/" xmlns:rdf="http://www.w3.org/1999/02/22-rdf-syntax-ns#">
 <metadata>
  <rdf:RDF>
   <cc:Work rdf:about="">
    <dc:format>image/svg+xml</dc:format>
    <dc:type rdf:resource="http://purl.org/dc/dcmitype/StillImage"/>
    <dc:title/>
   </cc:Work>
  </rdf:RDF>
 </metadata>
 <g transform="translate(0 -190.64)">
  <g transform="translate(-.75595)" stroke-width=".26458">

   <path d="m47.814 297-1.1906-0.18511 1.0583-0.0654c0.81782-0.0505 0.52688-0.14804-1.2802-0.42913-14.852-2.3102-27.658-10.495-36.043-23.037-4.141-6.1937-6.9824-13.56-8.1666-21.173-0.27766-1.785-0.37819-2.088-0.42474-1.2802l-0.060978 1.0583-0.20605-1.3229c-0.26718-1.7154-0.26718-11.249 0-12.965l0.20605-1.3229 0.060978 1.0583c0.046545 0.80783 0.14708 0.50481 0.42474-1.2802 0.88654-5.6994 2.2897-10.127 4.8847-15.414 5.9948-12.213 16.389-21.499 29.493-26.35 2.5033-0.92658 6.5746-1.9395 9.8323-2.4462 1.785-0.27766 2.088-0.37819 1.2802-0.42474l-1.0583-0.061 1.3229-0.20605c1.7154-0.26718 11.249-0.26718 12.965 0l1.3229 0.20605-1.0583 0.061c-0.80783 0.0465-0.50482 0.14708 1.2802 0.42474 14.852 2.3102 27.658 10.495 36.043 23.037 4.141 6.1937 6.9824 13.56 8.1666 21.173 0.27766 1.785 0.37819 2.088 0.42474 1.2802l0.061-1.0583 0.20605 1.3229c0.26718 1.7154 0.26718 11.249 0 12.965l-0.20605 1.3229-0.061-1.0583c-0.0465-0.80783-0.14708-0.50481-0.42474 1.2802-2.3102 14.852-10.495 27.658-23.037 36.043-6.1937 4.141-13.56 6.9824-21.173 8.1666-1.785 0.27766-2.088 0.37819-1.2802 0.42474l1.0583 0.061-1.3229 0.20605c-1.6205 0.25239-11.454 0.24326-13.097-0.0122zm12.626-7.5379c11.069-1.5736 20.883-6.8591 28.307-15.245 15.235-17.21 15.235-43.056 0-60.267-15.287-17.269-40.643-20.675-59.494-7.9925-12.934 8.7022-20.588 22.876-20.588 38.126s7.654 29.424 20.588 38.126c8.9849 6.0452 20.631 8.7535 31.187 7.2528zm-19.945-25.507c-2.1118-1.699-17.196-17.027-17.656-17.94-0.84005-1.6704-0.29004-3.9588 1.1277-4.6919 1.0011-0.51771 2.745-0.5343 3.6851-0.0351 0.39296 0.20867 3.9879 3.6615 7.9887 7.6729s7.454 7.2935 7.6737 7.2935c0.21971 0 7.781-7.3896 16.803-16.421 9.0219-9.0317 16.725-16.592 17.118-16.801 0.9509-0.50547 3.116-0.48687 3.8584 0.0332 1.2912 0.90441 1.7741 3.1044 1.0012 4.5611-0.2085 0.39295-8.6342 8.9595-18.724 19.037l-18.345 18.322h-1.6254c-1.4933 0-1.7295-0.0837-2.906-1.0302z" fill="#74004e"/>
  </g>
 </g>
</svg>
