<?xml version="1.0" encoding="UTF-8"?>
<!-- Created with Inkscape (http://www.inkscape.org/) -->
<svg width="420" height="420" version="1.1" viewBox="0 0 111.125 111.125" xmlns="http://www.w3.org/2000/svg" xmlns:cc="http://creativecommons.org/ns#" xmlns:dc="http://purl.org/dc/elements/1.1/" xmlns:rdf="http://www.w3.org/1999/02/22-rdf-syntax-ns#">
 <metadata>
  <rdf:RDF>
   <cc:Work rdf:about="">
    <dc:format>image/svg+xml</dc:format>
    <dc:type rdf:resource="http://purl.org/dc/dcmitype/StillImage"/>
    <dc:title/>
   </cc:Work>
  </rdf:RDF>
 </metadata>
 <g transform="translate(0 -185.87)">
  <path d="m51.39 296.55c-6.6992-0.53762-11.858-1.6217-17.183-3.611-16.245-6.0684-28.748-19.327-32.993-34.985-1.2998-4.7942-1.5743-6.9902-1.5852-12.681-0.01106-5.781 0.20304-7.6178 1.464-12.558 3.6473-14.289 14.579-27 29.035-33.76 6.2431-2.9196 13.885-4.8863 20.213-5.2022 1.2686-0.0633 2.7437-0.16443 3.2781-0.22471l0.97166-0.10958v-2.6215c0-3.0616 0.17824-3.4121 1.4399-2.8315 1.0639 0.48957 10.47 7.699 11.077 8.4901 0.61726 0.80442 0.6469 1.3677 0.11311 2.1492-0.44085 0.64545-10.105 8.3295-11.057 8.7918-0.50617 0.24574-0.66477 0.24542-1.0288-2e-3 -0.37427-0.25442-0.4403-0.64299-0.50641-2.9804l-0.07604-2.6879-1.9816 0.12858c-9.7969 0.63573-18.016 3.3947-25.443 8.54-16.178 11.209-22.708 30.628-16.326 48.549 0.449 1.2608 1.4726 3.5374 2.2748 5.0593 8.1516 15.466 25.158 24.983 43.432 24.305 7.1216-0.26413 13.067-1.7014 19.59-4.7355 1.3303-0.61878 2.7799-1.1882 3.2215-1.2653 1.7224-0.30082 3.9965 0.85771 4.6821 2.3852 0.36985 0.8241 0.40176 2.3605 0.06628 3.189-0.43096 1.0642-1.6481 1.998-4.1012 3.1466-7.6935 3.6021-15.159 5.3531-23.548 5.523-2.2005 0.0446-4.4639 0.0438-5.0298-2e-3zm38.066-14.537c-2.2641-0.97282-3.2306-3.3737-2.1945-5.451 0.23356-0.46827 1.1829-1.5777 2.1098-2.4653 1.3537-1.2966 1.8982-1.6681 2.7687-1.8895 3.3122-0.8421 6.3423 1.9531 5.4525 5.0298-0.33994 1.1753-3.1119 4.1368-4.4266 4.7293-1.221 0.5503-2.5005 0.56643-3.7099 0.0467zm-43.896-10.417c-10.185-3.2393-18.647-5.9671-18.804-6.0618-0.4388-0.26439-0.34855-0.92566 0.42672-3.1264 0.88517-2.5127 1.2424-2.9167 2.2813-2.5796 0.41233 0.13381 0.81684 0.17021 0.89892 0.0809 0.08208-0.0893 0.69396-1.647 1.3598-3.4616 1.4601-3.9792 2.0679-5.1826 3.1361-6.2085 1.2596-1.2098 2.9195-1.7602 9.2651-3.072l5.8759-1.2148 0.3524-0.96283c0.19382-0.52956 0.35239-1.095 0.35239-1.2566 0-0.16154-1.578-2.0436-3.5066-4.1825-4.6742-5.1836-5.3278-6.0179-5.6501-7.2132-0.37705-1.3982-0.0763-2.6768 1.8443-7.8413l1.566-4.211-0.84193-0.38316c-1.1196-0.50954-1.1299-0.93514-0.08864-3.6823 0.75866-2.0016 0.90878-2.2416 1.4381-2.2989 0.58992-0.0639 37.557 11.503 38.104 11.923 0.43474 0.33341 0.35137 0.94053-0.42837 3.1195-0.8868 2.4781-1.2313 2.8477-2.3793 2.5526-0.45984-0.11821-0.86379-0.184-0.89768-0.1462-0.03387 0.0378-0.65651 1.7449-1.3836 3.7936-1.6877 4.7554-2.1483 5.7165-3.2938 6.8734-1.3519 1.3654-2.8119 1.8684-9.4451 3.254l-5.8821 1.2287-0.37898 1.0623c-0.31278 0.8767-0.32816 1.138-0.08806 1.496 0.16 0.23853 1.7965 2.1142 3.6367 4.1681 4.3632 4.8701 4.76 5.353 5.1959 6.323 0.571 1.2708 0.27063 2.8991-1.3783 7.4717l-1.4787 4.1006 0.78767 0.3064c0.43322 0.16852 0.85483 0.46933 0.93692 0.66849 0.15242 0.3698-1.1044 4.058-1.6782 4.9251-0.18395 0.27792-0.53065 0.47181-0.82611 0.462-0.28003-9e-3 -8.8425-2.6672-19.028-5.9065zm18.053-6.2425c0.69609-1.9501 1.2656-3.7865 1.2656-4.081 0-0.63976-0.61637-1.4104-5.1356-6.4213-4.4356-4.9181-4.4667-4.9572-4.4667-5.6156 0-0.83531 1.5629-5.0357 2.0156-5.4171 0.22752-0.1917 3.0576-0.8815 6.6771-1.6275 3.4552-0.71211 6.6098-1.3929 7.0102-1.5128 1.2826-0.38418 2.1969-1.5972 3.205-4.2522 1.4143-3.7249 2.227-6.1353 2.1064-6.2476-0.28957-0.26957-27.757-8.8286-27.889-8.6905-0.27064 0.28254-3.4199 9.2958-3.4164 9.7778 0.0034 0.49716 0.73912 1.3826 6.1544 7.4091 2.7425 3.052 3.4436 3.961 3.447 4.4694 6e-3 0.88707-1.5313 5.0951-2.0063 5.4923-0.21741 0.18175-3.1718 0.9026-6.6771 1.6292-3.458 0.71675-6.6148 1.4005-7.0152 1.5195-1.4611 0.43425-2.1756 1.5229-3.6279 5.5286-0.73986 2.0405-1.3308 3.7561-1.3133 3.8125 0.01754 0.0563 6.2901 2.0837 13.939 4.5052l13.907 4.4028 0.27761-0.56759c0.15269-0.31217 0.84714-2.1631 1.5432-4.1132zm36.588 3.6606c-2.9182-0.63893-4.2394-3.1735-3.0808-5.9103 1.0885-2.5714 1.8451-3.6702 2.9376-4.2663 2.0132-1.0984 4.6317-0.53611 5.9158 1.2704 0.51456 0.7239 0.6283 1.12 0.62524 2.1775-7e-3 2.5466-2.3155 6.2616-4.1058 6.6084-1.266 0.24521-1.6336 0.26452-2.292 0.12036zm3.4294-15.901c-1.0194-0.50146-1.4839-0.9364-1.9943-1.8674-0.40248-0.7342-0.44779-1.1457-0.36477-3.3135 0.0847-2.2142 0.15958-2.5781 0.70921-3.4513 0.69771-1.1084 2.4554-2.0814 3.7597-2.0814 1.6011 0 3.1788 0.94803 3.971 2.386 0.84367 1.5316 0.47967 5.7943-0.60816 7.1221-1.1781 1.4379-3.818 2.0194-5.4727 1.2055zm-1.384-16.138c-0.62197-0.29067-1.3565-0.84141-1.6322-1.2239-0.62557-0.8677-1.6706-4.1855-1.6706-5.3039 0-2.2343 2.4423-4.2482 4.7954-3.9544 2.275 0.28408 3.364 1.3663 4.259 4.2324 1.0692 3.4237 0.46381 5.2777-2.0813 6.3748-1.2489 0.53833-2.3297 0.50153-3.6703-0.12495zm-6.5824-14.46c-1.0878-0.37143-1.7426-0.93359-2.9948-2.5713-1.3978-1.8282-1.7275-2.5141-1.7275-3.594 0-1.1958 0.31435-1.9835 1.1005-2.7577 1.0347-1.0189 2.2411-1.4767 3.6124-1.3708 1.7362 0.13404 2.7178 0.83533 4.3857 3.1336 1.3022 1.7942 1.4181 2.0474 1.4181 3.098 0 1.3812-0.28501 2.1443-1.1005 2.9467-1.2185 1.1989-3.1237 1.6518-4.694 1.1156zm-11.835-11.609c-0.87683-0.24709-3.9282-2.2157-4.6189-2.9799-1.0869-1.2026-1.3275-2.7713-0.63762-4.1584 0.81564-1.6401 2.2458-2.4874 4.1821-2.4777 1.1656 6e-3 1.9007 0.29791 3.6995 1.47 1.7882 1.1652 2.2253 1.572 2.6842 2.4976 1.5925 3.2123-1.6632 6.6759-5.3092 5.6484z" stroke-width=".2206" fill="#FE9702"/>
 </g>
</svg>
