<?xml version="1.0" encoding="UTF-8" standalone="no"?>
<!-- Created with Inkscape (http://www.inkscape.org/) -->

<svg
   xmlns:dc="http://purl.org/dc/elements/1.1/"
   xmlns:cc="http://creativecommons.org/ns#"
   xmlns:rdf="http://www.w3.org/1999/02/22-rdf-syntax-ns#"
   xmlns:svg="http://www.w3.org/2000/svg"
   xmlns="http://www.w3.org/2000/svg"
   xmlns:sodipodi="http://sodipodi.sourceforge.net/DTD/sodipodi-0.dtd"
   xmlns:inkscape="http://www.inkscape.org/namespaces/inkscape"
   width="150"
   height="151"
   viewBox="0 0 39.6875 39.952082"
   version="1.1"
   id="svg53"
   inkscape:version="0.92.1 r15371"
   sodipodi:docname="airtime.svg">
  <defs
     id="defs47" />
  <sodipodi:namedview
     id="base"
     pagecolor="#ffffff"
     bordercolor="#666666"
     borderopacity="1.0"
     inkscape:pageopacity="0.0"
     inkscape:pageshadow="2"
     inkscape:zoom="1.979899"
     inkscape:cx="172.0611"
     inkscape:cy="51.338488"
     inkscape:document-units="px"
     inkscape:current-layer="layer1"
     showgrid="false"
     units="px"
     inkscape:window-width="1366"
     inkscape:window-height="705"
     inkscape:window-x="-8"
     inkscape:window-y="-8"
     inkscape:window-maximized="1" />
  <metadata
     id="metadata50">
    <rdf:RDF>
      <cc:Work
         rdf:about="">
        <dc:format>image/svg+xml</dc:format>
        <dc:type
           rdf:resource="http://purl.org/dc/dcmitype/StillImage" />
        <dc:title></dc:title>
      </cc:Work>
    </rdf:RDF>
  </metadata>
  <g
     inkscape:label="Layer 1"
     inkscape:groupmode="layer"
     id="layer1"
     transform="translate(0,-257.04793)">
    <path
       inkscape:connector-curvature="0"
       id="path4356"
       d="m 17.171447,296.78764 c -2.29061,-0.30809 -5.407451,-1.38217 -7.4616245,-2.57134 -2.599022,-1.50457 -5.989905,-5.02992 -7.312873,-7.60287 -1.56021499,-3.03435 -2.21969999,-5.37429 -2.38927299,-8.47748 -0.703191,-12.86838 10.78000149,-23.03826 23.30703049,-20.64144 4.014673,0.76813 7.204445,2.46336 10.233593,5.43871 5.267579,5.17404 7.21401,12.74177 5.113936,19.88301 -0.602549,2.04896 -2.279365,5.15145 -3.733734,6.90827 -4.249145,5.13279 -11.289161,7.93307 -17.757055,7.06314 z"
       style="fill:#d1dcec;stroke-width:0.26458335" />
    <g
       id="g4455"
       transform="matrix(0.70391981,0,0,0.6445785,4.3904233,262.32481)">
      <g
         id="g4447">
        <g
           id="g4445">
          <path
             id="path4443"
             d="M 33,0 H 11 C 9.896,0 9,0.896 9,2 v 40 c 0,1.104 0.896,2 2,2 h 22 c 1.104,0 2,-0.896 2,-2 V 2 C 35,0.896 34.104,0 33,0 Z m 0,42 H 11 V 2 H 33 Z M 22,40 c 1.104,0 2,-0.896 2,-2 0,-1.104 -0.896,-2 -2,-2 -1.104,0 -2,0.896 -2,2 0,1.104 0.896,2 2,2 z"
             inkscape:connector-curvature="0"
             style="fill-rule:evenodd" />
        </g>
      </g>
      <g
         id="g4453">
        <g
           id="g4451">
          <path
             id="path4449"
             d="M 14,8 H 30 C 30.553,8 31,7.552 31,7 31,6.447 30.553,6 30,6 H 14 c -0.553,0 -1,0.447 -1,1 0,0.552 0.447,1 1,1 z m 4,25 h -4 c -0.553,0 -1,0.447 -1,1 0,0.553 0.447,1 1,1 h 4 c 0.553,0 1,-0.447 1,-1 0,-0.553 -0.447,-1 -1,-1 z m 12,0 h -4 c -0.553,0 -1,0.447 -1,1 0,0.553 0.447,1 1,1 h 4 c 0.553,0 1,-0.447 1,-1 0,-0.553 -0.447,-1 -1,-1 z"
             inkscape:connector-curvature="0"
             style="fill-rule:evenodd" />
        </g>
      </g>
    </g>
  </g>
</svg>
