<svg id="Layer_1" data-name="Layer 1" xmlns="http://www.w3.org/2000/svg" viewBox="0 0 250 250"><defs><style>.cls-1{fill:#5880ef;}.cls-2{fill:#fff;}</style></defs><title>Airtime Top Up</title><circle class="cls-1" cx="125" cy="125" r="111.17"/><path class="cls-2" d="M165.87,101.71H153v-16A10.66,10.66,0,0,0,142.36,75l-70.42,0A10.66,10.66,0,0,0,61.3,85.72l0,48.28a10.55,10.55,0,0,0,10.43,10.64h2.84v19.11a3.79,3.79,0,0,0,6.47,2.68l21.78-21.8h2.22v1.24a10.66,10.66,0,0,0,10.65,10.64h27.38l13.71,13.69a3.79,3.79,0,0,0,6.47-2.68v-11h2.84a10.55,10.55,0,0,0,10.42-10.65l0-33.47A10.66,10.66,0,0,0,165.87,101.71Zm-83.7,52.88V140.84a3.79,3.79,0,0,0-3.79-3.79H71.74A3,3,0,0,1,68.9,134l0-48.28a3.07,3.07,0,0,1,3.07-3.07l70.42,0a3.07,3.07,0,0,1,3.07,3.07l0,48.28a3.07,3.07,0,0,1-3.07,3.07l-41.11,0h0a3.78,3.78,0,0,0-2.68,1.11ZM169,145.82a3,3,0,0,1-2.84,3.07h-6.63a3.79,3.79,0,0,0-3.79,3.79v5.66L147.35,150a3.78,3.78,0,0,0-2.68-1.11h-29a3.07,3.07,0,0,1-3.07-3.07v-1.24h29.74A10.66,10.66,0,0,0,153,133.95V109.3h12.85a3.07,3.07,0,0,1,3.07,3.07l0,33.47ZM84.42,100.37a9.47,9.47,0,1,0,9.48,9.47A9.49,9.49,0,0,0,84.42,100.37Zm0,11.37a1.89,1.89,0,1,1,1.89-1.9A1.9,1.9,0,0,1,84.43,111.74Zm45.48,7.56a9.47,9.47,0,1,0-9.48-9.47A9.49,9.49,0,0,0,129.91,119.3Zm0-11.37a1.89,1.89,0,1,1-1.89,1.9A1.9,1.9,0,0,1,129.91,107.93Zm-13.27,1.9a9.47,9.47,0,1,0-9.47,9.48A9.49,9.49,0,0,0,116.64,109.83Zm-11.37,0a1.89,1.89,0,1,1,1.9,1.89A1.9,1.9,0,0,1,105.27,109.83Z"/></svg>
