<svg id="Layer_1" data-name="Layer 1" xmlns="http://www.w3.org/2000/svg" viewBox="0 0 250 250"><defs><style>.cls-1{fill:#fd8960;}.cls-2{fill:#fff;}</style></defs><title>Digital kibubu</title><circle class="cls-1" cx="125" cy="125" r="114.71"/><path class="cls-2" d="M144.69,154.5H105.31A6.56,6.56,0,0,1,98.77,148V128.27a6.56,6.56,0,0,1,6.54-6.54h39.37a6.56,6.56,0,0,1,6.54,6.54V148A6.56,6.56,0,0,1,144.69,154.5Zm-3.27-36a3.24,3.24,0,0,1-3.27-3.27,13.15,13.15,0,1,0-26.29,0,3.27,3.27,0,1,1-6.54,0,19.69,19.69,0,1,1,39.37,0A3.32,3.32,0,0,1,141.42,118.46Z"/></svg>
