<svg id="Layer_1" data-name="Layer 1" xmlns="http://www.w3.org/2000/svg" viewBox="0 0 250 250"><defs><style>.cls-1{fill:#fd8960;}.cls-2{fill:#fff;}</style></defs><title>Funds Transfer</title><circle class="cls-1" cx="125" cy="125" r="114.46"/><path class="cls-2" d="M150.6,141.29a3.67,3.67,0,0,0-5.83-2.74l-8.8,6.57V97.57a3.66,3.66,0,1,0-7.31,0v54.86a3.66,3.66,0,0,0,3.66,3.66,4.49,4.49,0,0,0,2.57-1.09l14.23-10.57a3.74,3.74,0,0,0,1.49-3.14ZM121.34,97.57a3.66,3.66,0,0,0-3.66-3.66A4.49,4.49,0,0,0,115.12,95l-14.23,10.57a3.74,3.74,0,0,0-1.49,3.14,3.67,3.67,0,0,0,5.83,2.74l8.8-6.57v47.55a3.66,3.66,0,1,0,7.31,0Z"/></svg>
