<svg id="Layer_1" data-name="Layer 1" xmlns="http://www.w3.org/2000/svg" viewBox="0 0 250 250"><defs><style>.cls-1{fill:#fd8960;}.cls-2{fill:#fff;}</style></defs><title>Salary Advance</title><circle class="cls-1" cx="125" cy="125" r="114.2"/><rect class="cls-2" x="131.82" y="128.16" width="13.56" height="1.24"/><rect class="cls-2" x="104.46" y="128.16" width="13.84" height="1.24"/><rect class="cls-2" x="129.7" y="123.4" width="15.68" height="1.24"/><rect class="cls-2" x="104.46" y="123.4" width="15.78" height="1.24"/><path class="cls-2" d="M150.72,126v-.92a6.58,6.58,0,0,0-6.57-6.57H139.5l-11-7.32a6.54,6.54,0,0,0-7.34,0l-10.67,7.28h-4.87A6.58,6.58,0,0,0,99,125.13v1.28a6.56,6.56,0,0,0-2.33,5V158.3a6.58,6.58,0,0,0,6.57,6.57h43.59a6.58,6.58,0,0,0,6.57-6.57V131.36A6.55,6.55,0,0,0,150.72,126Zm-28.16-12.72a4.07,4.07,0,0,1,4.57,0l7.89,5.25H114.9Zm-21,11.8a4.1,4.1,0,0,1,4.09-4.09h38.53a4.1,4.1,0,0,1,4.09,4.09v2.25a4.07,4.07,0,0,1-1.84,3.41l-3.28,2.12H132.05v1.24h9.15l-4.83,3.13h-4.16v1.24h2.25l-7.19,4.65a5.63,5.63,0,0,0,2.5-4.84c0-3-2.23-5.44-4.91-5.41a2.15,2.15,0,0,1-2-2.22,2,2,0,1,1,4,0V131l2.87,0v-.38a5.4,5.4,0,0,0-3.48-5.19l0-3.34-2.87,0,0,3.34a5.4,5.4,0,0,0-3.35,5.26c0,3,2.23,5.47,4.91,5.44a2.24,2.24,0,1,1-2,2.23V138l-2.87,0v.38a5.85,5.85,0,0,0,1.58,4l-6-3.9h3.07v-1.24h-5l-4.84-3.13h9.68v-1.24h-11.6l-3.54-2.28a4.08,4.08,0,0,1-1.87-3.43v-2.07Zm25.56,18.17-.17.11a4.1,4.1,0,0,1-.51.21h0A4.61,4.61,0,0,0,127.09,143.29Zm-27.89,15V131.41a4.2,4.2,0,0,1,.06-.5l2.79,1.8h0l19.46,12.57h0l1.25.81-22.7,14.69A4.05,4.05,0,0,1,99.2,158.3Zm47.68,4.09H103.29a4.08,4.08,0,0,1-.94-.12l22.7-14.7,22.77,14.7A4.06,4.06,0,0,1,146.88,162.39ZM151,158.3a4,4,0,0,1-.87,2.49l-22.76-14.7.91-.59c.14-.08.28-.14.41-.23l19.07-12.38,0,0,3.13-2a4.05,4.05,0,0,1,.07.54V158.3Z"/><path class="cls-2" d="M89.76,135.1H75a1.24,1.24,0,0,0,0,2.48H89.76a1.24,1.24,0,0,0,0-2.48Z"/><path class="cls-2" d="M175,135.1H160.24a1.24,1.24,0,0,0,0,2.48H175a1.24,1.24,0,0,0,0-2.48Z"/><path class="cls-2" d="M95.1,117.64l-12.75-7.36a1.24,1.24,0,0,0-1.69.45h0a1.24,1.24,0,0,0,.45,1.69l12.75,7.36a1.24,1.24,0,0,0,1.69-.45h0A1.24,1.24,0,0,0,95.1,117.64Z"/><path class="cls-2" d="M106.31,106.44a1.24,1.24,0,0,0,1.69.45h0a1.24,1.24,0,0,0,.45-1.69l-7.36-12.75A1.24,1.24,0,0,0,99.4,92h0a1.24,1.24,0,0,0-.45,1.69Z"/><path class="cls-2" d="M125,102.34a1.24,1.24,0,0,0,1.24-1.24V86.37a1.24,1.24,0,1,0-2.48,0V101.1A1.24,1.24,0,0,0,125,102.34Z"/><path class="cls-2" d="M142,106.89h0a1.24,1.24,0,0,0,1.69-.45l7.36-12.75A1.24,1.24,0,0,0,150.6,92h0a1.24,1.24,0,0,0-1.69.45l-7.36,12.75A1.24,1.24,0,0,0,142,106.89Z"/><path class="cls-2" d="M169.34,110.74h0a1.24,1.24,0,0,0-1.69-.45l-12.75,7.36a1.24,1.24,0,0,0-.45,1.69h0a1.24,1.24,0,0,0,1.69.45l12.75-7.36A1.24,1.24,0,0,0,169.34,110.74Z"/></svg>
