<svg id="Layer_1" data-name="Layer 1" xmlns="http://www.w3.org/2000/svg" viewBox="0 0 250 250"><defs><style>.cls-1{fill:#9ca3ff;}.cls-2{fill:#fff;}</style></defs><title>Withdraw cash</title><circle class="cls-1" cx="114.96" cy="125.07" r="114.07"/><polygon class="cls-2" points="136.79 106.83 136.79 99.17 93.13 99.17 93.13 106.83 93.63 103 136.29 103 136.79 106.83"/><path class="cls-2" d="M95.32,104.94l-6.51,50H141.1l-6.51-50Zm33.52,26.31h-3.08a9.41,9.41,0,0,1-1.12,3.24l-.6,1.06-4.7-1.78.82-1.44a5.9,5.9,0,0,0,.88-3.12c0-1.57-.77-1.81-1.23-1.81s-1,.21-2.16,2.91-2.79,5.57-6.84,5.57a6.52,6.52,0,0,1-6.29-4.81h-3.46v-4.75h3.15a9.41,9.41,0,0,1,1.49-4l.62-.87,4.74,1.7-1,1.51a6.76,6.76,0,0,0-1.07,3.57c0,1.34.61,2.2,1.56,2.2.44,0,1.27,0,2.31-2.55,1.08-2.74,2.8-5.9,6.61-5.9a6.18,6.18,0,0,1,6,4.56h3.34Z"/><polygon class="cls-2" points="77.31 95.16 77.31 112.78 92.36 112.78 92.63 110.7 91.2 110.7 91.2 97.24 138.72 97.24 138.72 110.7 137.3 110.7 137.56 112.78 152.61 112.78 152.61 95.16 77.31 95.16"/></svg>
