<?xml version="1.0" encoding="UTF-8" standalone="no"?>
<!-- Created with Inkscape (http://www.inkscape.org/) -->

<svg
   xmlns:dc="http://purl.org/dc/elements/1.1/"
   xmlns:cc="http://creativecommons.org/ns#"
   xmlns:rdf="http://www.w3.org/1999/02/22-rdf-syntax-ns#"
   xmlns:svg="http://www.w3.org/2000/svg"
   xmlns="http://www.w3.org/2000/svg"
   xmlns:sodipodi="http://sodipodi.sourceforge.net/DTD/sodipodi-0.dtd"
   xmlns:inkscape="http://www.inkscape.org/namespaces/inkscape"
   width="150"
   height="151"
   viewBox="0 0 39.6875 39.952082"
   version="1.1"
   id="svg53"
   inkscape:version="0.92.1 r15371"
   sodipodi:docname="buy_airtime.svg">
  <defs
     id="defs47" />
  <sodipodi:namedview
     id="base"
     pagecolor="#ffffff"
     bordercolor="#666666"
     borderopacity="1.0"
     inkscape:pageopacity="0.0"
     inkscape:pageshadow="2"
     inkscape:zoom="1.979899"
     inkscape:cx="172.0611"
     inkscape:cy="51.338488"
     inkscape:document-units="px"
     inkscape:current-layer="layer1"
     showgrid="false"
     units="px"
     inkscape:window-width="1366"
     inkscape:window-height="705"
     inkscape:window-x="-8"
     inkscape:window-y="-8"
     inkscape:window-maximized="1" />
  <metadata
     id="metadata50">
    <rdf:RDF>
      <cc:Work
         rdf:about="">
        <dc:format>image/svg+xml</dc:format>
        <dc:type
           rdf:resource="http://purl.org/dc/dcmitype/StillImage" />
        <dc:title></dc:title>
      </cc:Work>
    </rdf:RDF>
  </metadata>
  <g
     inkscape:label="Layer 1"
     inkscape:groupmode="layer"
     id="layer1"
     transform="translate(0,-257.04793)">
    <path
       inkscape:connector-curvature="0"
       id="path4334"
       d="m 17.441226,296.63518 c -6.712412,-0.89851 -12.9689555,-5.72044 -15.5864873,-12.01255 -2.25216215,-5.41382 -1.96406826,-11.84617 0.7646334,-17.07216 1.8668774,-3.57543 5.0330723,-6.64883 8.7036989,-8.44862 7.981162,-3.91334 16.849325,-2.28514 22.965592,4.21649 5.450917,5.79435 6.924122,13.96436 3.850688,21.35487 -3.377491,8.12167 -12.030116,13.12224 -20.698125,11.96197 z"
       style="fill:#d1dcec;stroke-width:0.26458335" />
    <path
       inkscape:connector-curvature="0"
       id="path4332"
       d="m 12.978235,285.81921 c -0.788983,-0.62062 -1.026411,-1.59009 -0.672126,-2.74446 0.22722,-0.74035 0.14965,-0.99858 -0.662474,-2.20539 -2.4483443,-3.63823 -1.8528302,-8.52504 1.410896,-11.57788 0.730481,-0.68327 2.008954,-1.56142 2.841052,-1.95142 1.324817,-0.62094 1.841839,-0.7091 4.158738,-0.7091 2.316898,0 2.83392,0.0882 4.158738,0.7091 2.00209,0.93838 3.998281,2.84571 4.900021,4.68191 0.633674,1.29033 0.730824,1.8047 0.730824,3.86941 0,2.0647 -0.09715,2.57907 -0.730824,3.86941 -0.899065,1.83075 -2.906652,3.75285 -4.848129,4.64168 -1.113462,0.50976 -2.134226,0.71744 -4.29103,0.87304 -1.595831,0.11513 -3.25901,0.39229 -3.813706,0.63554 -1.310885,0.57485 -2.3734,0.54419 -3.18198,-0.0918 z m 2.917396,-1.49788 c 0.573947,-0.25298 2.158906,-0.51091 3.805091,-0.61922 2.288677,-0.15058 3.098709,-0.3213 4.29007,-0.90418 2.805583,-1.37265 4.403584,-3.97485 4.392093,-7.15212 -0.0099,-2.74914 -1.662128,-5.30562 -4.343025,-6.72009 -1.193368,-0.62964 -1.628715,-0.70685 -3.985539,-0.70685 -2.356825,0 -2.792172,0.0772 -3.985539,0.70685 -2.680898,1.41447 -4.333082,3.97095 -4.343026,6.72009 -0.0074,2.05527 0.569394,3.73146 1.764643,5.12784 0.92223,1.07741 0.938835,1.13522 0.611242,2.12784 -0.593217,1.79746 -0.04575,2.23076 1.79399,1.41984 z m 3.291519,-2.8887 c -0.795919,-0.55749 -0.760624,-1.57951 0.07342,-2.126 0.612741,-0.40148 0.710175,-0.40148 1.322916,0 0.834045,0.54649 0.86934,1.56851 0.07342,2.126 -0.323422,0.22653 -0.654117,0.41187 -0.734879,0.41187 -0.08076,0 -0.411458,-0.18534 -0.734879,-0.41187 z m -0.006,-3.60979 c -0.774664,-0.77467 -0.2923,-2.32948 1.179213,-3.801 0.708275,-0.70827 0.712549,-1.10593 0.0166,-1.54492 -0.319849,-0.20176 -0.753349,-0.16098 -1.591718,0.14975 -1.412061,0.52334 -2.038265,0.26117 -2.038265,-0.85337 0,-2.17651 4.795843,-2.53572 6.13493,-0.45951 0.97796,1.5163 0.657701,3.11531 -0.845396,4.22095 -0.464492,0.34167 -1.07317,1.06771 -1.352618,1.61341 -0.52608,1.02732 -0.956755,1.22068 -1.502749,0.67469 z"
       style="fill:#df3c4d;stroke-width:0.26458335" />
  </g>
</svg>
