<?xml version="1.0" encoding="UTF-8" standalone="no"?>
<!-- Created with Inkscape (http://www.inkscape.org/) -->

<svg
   xmlns:dc="http://purl.org/dc/elements/1.1/"
   xmlns:cc="http://creativecommons.org/ns#"
   xmlns:rdf="http://www.w3.org/1999/02/22-rdf-syntax-ns#"
   xmlns:svg="http://www.w3.org/2000/svg"
   xmlns="http://www.w3.org/2000/svg"
   xmlns:sodipodi="http://sodipodi.sourceforge.net/DTD/sodipodi-0.dtd"
   xmlns:inkscape="http://www.inkscape.org/namespaces/inkscape"
   width="150"
   height="151"
   viewBox="0 0 39.6875 39.952082"
   version="1.1"
   id="svg53"
   inkscape:version="0.92.1 r15371"
   sodipodi:docname="qr.svg">
  <defs
     id="defs47" />
  <sodipodi:namedview
     id="base"
     pagecolor="#ffffff"
     bordercolor="#666666"
     borderopacity="1.0"
     inkscape:pageopacity="0.0"
     inkscape:pageshadow="2"
     inkscape:zoom="1.979899"
     inkscape:cx="99.630827"
     inkscape:cy="45.396079"
     inkscape:document-units="px"
     inkscape:current-layer="layer1"
     showgrid="false"
     units="px"
     inkscape:window-width="1366"
     inkscape:window-height="705"
     inkscape:window-x="-8"
     inkscape:window-y="-8"
     inkscape:window-maximized="1" />
  <metadata
     id="metadata50">
    <rdf:RDF>
      <cc:Work
         rdf:about="">
        <dc:format>image/svg+xml</dc:format>
        <dc:type
           rdf:resource="http://purl.org/dc/dcmitype/StillImage" />
        <dc:title></dc:title>
      </cc:Work>
    </rdf:RDF>
  </metadata>
  <g
     inkscape:label="Layer 1"
     inkscape:groupmode="layer"
     id="layer1"
     transform="translate(0,-257.04793)">
    <path
       inkscape:connector-curvature="0"
       id="path4356"
       d="m 17.171447,296.78764 c -2.29061,-0.30809 -5.407451,-1.38217 -7.4616245,-2.57134 -2.599022,-1.50457 -5.989905,-5.02992 -7.312873,-7.60287 -1.56021499,-3.03435 -2.21969999,-5.37429 -2.38927299,-8.47748 -0.703191,-12.86838 10.78000149,-23.03826 23.30703049,-20.64144 4.014673,0.76813 7.204445,2.46336 10.233593,5.43871 5.267579,5.17404 7.21401,12.74177 5.113936,19.88301 -0.602549,2.04896 -2.279365,5.15145 -3.733734,6.90827 -4.249145,5.13279 -11.289161,7.93307 -17.757055,7.06314 z"
       style="fill:#d1dcec;stroke-width:0.26458335" />
    <path
       inkscape:connector-curvature="0"
       id="path4547"
       d="m 9.3061884,289.08586 c -0.035,-0.0976 -0.04786,-0.92179 -0.02861,-1.83159 l 0.03507,-1.65418 h 0.435032 0.4350316 l 0.06213,1.26278 0.06213,1.26278 1.180807,0.0665 1.180807,0.0665 v 0.46523 0.46524 l -1.649422,0.0371 c -1.2853726,0.029 -1.6634696,-0.002 -1.7130806,-0.14029 z m 18.3898666,-0.0162 c -0.03823,-0.10648 -0.05109,-0.33254 -0.02861,-0.50234 0.03877,-0.29276 0.102048,-0.31219 1.221707,-0.37522 l 1.180806,-0.0665 0.06213,-1.26278 0.06213,-1.26278 h 0.435038 0.435032 v 1.79448 1.79448 l -1.649422,0.0371 c -1.352283,0.0304 -1.661928,0.002 -1.718883,-0.15649 z m -15.904691,-2.64432 c -0.03722,-0.10375 -0.05082,-0.57114 -0.03022,-1.03865 l 0.03749,-0.85001 2.447472,-0.036 2.447486,-0.036 0.03844,-0.49568 c 0.03642,-0.47006 0.06092,-0.49568 0.473455,-0.49568 0.414312,0 0.435032,0.0222 0.435032,0.46523 0,0.44291 -0.02268,0.46724 -0.473139,0.50694 -0.463405,0.0408 -0.472358,0.0517 -0.435032,0.5317 l 0.0381,0.49 0.955479,0.0387 0.955479,0.0387 0.03891,-0.50391 c 0.03696,-0.47911 0.06213,-0.50596 0.512013,-0.54561 0.463412,-0.0408 0.472358,-0.0518 0.435032,-0.5317 -0.03487,-0.44852 -0.07492,-0.49562 -0.473132,-0.55646 l -0.435032,-0.0665 -0.035,-1.56186 -0.035,-1.56187 h -0.488008 -0.488001 l -0.03628,1.03017 -0.03628,1.03016 -0.956092,0.0387 -0.956084,0.0387 -0.0383,0.49302 -0.0383,0.49301 h -0.932215 -0.932208 l -0.03898,-0.50599 c -0.03817,-0.49558 -0.0484,-0.50514 -0.497184,-0.46523 -0.419408,0.0373 -0.463445,0.0801 -0.520332,0.50599 -0.05749,0.43042 -0.0947,0.46523 -0.497177,0.46523 h -0.435055 v -0.99694 -0.99692 l 0.963287,-0.0388 0.963287,-0.0388 v -0.51808 c 0,-0.50273 -0.0138,-0.5193 -0.466104,-0.55934 -0.439367,-0.0389 -0.468298,-0.0694 -0.504258,-0.53215 -0.03588,-0.46123 -0.0659,-0.49336 -0.497189,-0.5317 -0.434467,-0.0386 -0.459023,-0.0657 -0.459023,-0.50603 0,-0.44309 0.02073,-0.46525 0.435038,-0.46525 0.41298,0 0.436985,0.0253 0.473603,0.49847 0.03743,0.48369 0.05298,0.49848 0.523032,0.49848 h 0.484448 l 0.03628,-1.03017 0.03628,-1.03017 0.466105,-0.0413 c 0.453213,-0.0401 0.466104,-0.0557 0.466104,-0.56492 v -0.52384 h -0.98685 -0.986861 l -0.03857,0.49847 c -0.03662,0.4732 -0.06065,0.49847 -0.473603,0.49847 -0.414319,0 -0.435039,-0.0222 -0.435039,-0.46524 0,-0.44035 0.02457,-0.46742 0.459023,-0.50604 0.431289,-0.0383 0.461338,-0.0705 0.49719,-0.5317 l 0.03817,-0.49089 h 0.932208 0.932215 l 0.03857,0.49846 c 0.03743,0.48326 0.05331,0.49847 0.520749,0.49847 0.467458,0 0.483351,-0.0152 0.52075,-0.49847 0.03662,-0.4732 0.06065,-0.49846 0.47361,-0.49846 0.412987,0 0.436991,0.0253 0.47361,0.49846 0.03743,0.48369 0.05291,0.49847 0.523025,0.49847 h 0.484454 l 0.03628,-1.03016 0.03628,-1.03017 0.466104,-0.0413 c 0.451881,-0.04 0.466104,-0.057 0.466104,-0.5569 0,-0.49992 -0.0142,-0.51691 -0.466104,-0.55691 -0.442484,-0.0391 -0.466104,-0.0649 -0.466104,-0.50649 0,-0.44308 0.02073,-0.46523 0.435032,-0.46523 0.412979,0 0.436984,0.0252 0.473603,0.49846 0.03743,0.48369 0.05298,0.49847 0.523031,0.49847 h 0.484448 l 0.03628,-1.03016 0.03628,-1.03017 0.435031,-0.0665 c 0.402479,-0.0615 0.435032,-0.10128 0.435032,-0.5317 v -0.46524 l -0.955478,-0.0387 -0.955486,-0.0387 -0.03884,0.50391 c -0.03696,0.47936 -0.06004,0.50391 -0.473913,0.50391 -0.414319,0 -0.435032,-0.0222 -0.435032,-0.46524 0,-0.44034 0.02457,-0.46741 0.459023,-0.50603 0.431282,-0.0383 0.461331,-0.0705 0.497183,-0.53171 l 0.03817,-0.49089 h 1.429392 1.429391 l 0.06213,0.46524 c 0.05526,0.41354 0.110483,0.47262 0.497177,0.5317 0.402485,0.0615 0.435038,0.10127 0.435038,0.53169 0,0.43042 -0.03258,0.47021 -0.435038,0.5317 -0.386694,0.0591 -0.441932,0.11815 -0.497177,0.5317 -0.05527,0.41354 -0.110483,0.47262 -0.497183,0.5317 -0.398211,0.0608 -0.438256,0.10793 -0.473138,0.55645 -0.03729,0.47992 -0.02834,0.49086 0.435031,0.5317 l 0.473139,0.0417 0.06213,0.99694 0.06213,0.99693 0.435032,0.0665 c 0.399806,0.0611 0.438162,0.10683 0.473616,0.56493 0.03736,0.48326 0.05331,0.49847 0.52075,0.49847 0.467458,0 0.48335,-0.0152 0.52075,-0.49847 0.03662,-0.4732 0.06065,-0.49847 0.47361,-0.49847 0.414319,0 0.435032,0.0222 0.435032,0.46524 0,0.44166 -0.02363,0.46733 -0.466104,0.50649 -0.451881,0.04 -0.466104,0.057 -0.466104,0.55691 0,0.49991 0.0142,0.51691 0.466104,0.5569 0.441797,0.0391 0.468137,0.0675 0.504985,0.54517 l 0.03891,0.50391 0.955479,-0.0387 0.955479,-0.0387 0.0381,-0.49 c 0.03729,-0.47992 0.02834,-0.49085 -0.435032,-0.5317 l -0.473138,-0.0417 v -0.99693 -0.99693 h 0.435031 0.435032 l 0.03642,1.03784 0.03642,1.03785 0.460746,-0.0409 c 0.42231,-0.0375 0.465936,-0.0797 0.522898,-0.50615 0.05749,-0.43043 0.0947,-0.46524 0.497183,-0.46524 h 0.435032 v 0.99693 0.99694 l -0.435032,0.0665 c -0.398211,0.0608 -0.438257,0.10794 -0.473139,0.55646 -0.03729,0.47992 -0.02834,0.49085 0.435032,0.53169 0.45044,0.0397 0.473139,0.0641 0.473139,0.50695 0,0.44308 -0.02073,0.46523 -0.435032,0.46523 -0.414165,0 -0.436903,-0.0242 -0.474034,-0.50598 -0.03817,-0.49558 -0.0484,-0.50515 -0.497176,-0.46524 -0.419409,0.0373 -0.463446,0.0801 -0.520333,0.50599 -0.05749,0.43042 -0.0947,0.46523 -0.497183,0.46523 -0.402479,0 -0.439684,-0.0348 -0.497177,-0.46523 -0.05688,-0.42586 -0.100924,-0.46868 -0.520332,-0.50599 -0.448758,-0.0399 -0.458989,-0.0304 -0.497183,0.46524 -0.03709,0.48171 -0.05984,0.50598 -0.474027,0.50598 -0.413842,0 -0.436924,-0.0245 -0.473913,-0.50391 l -0.03891,-0.5039 -0.955479,0.0387 -0.955485,0.0387 v 0.46524 c 0,0.43042 0.03258,0.47021 0.435032,0.53169 0.402485,0.0615 0.435038,0.10128 0.435038,0.53171 v 0.46523 h -0.932214 -0.932215 l -0.035,-1.56186 -0.035,-1.56187 h -0.485733 c -0.471563,0 -0.486857,0.0145 -0.524304,0.49847 -0.03547,0.45811 -0.07381,0.50385 -0.47361,0.56494 -0.398217,0.0608 -0.438256,0.10792 -0.473138,0.55645 -0.03729,0.47991 -0.02834,0.49085 0.435032,0.5317 l 0.473138,0.0417 0.06213,0.99692 0.06213,0.99694 1.429392,0.0665 1.429392,0.0665 v 0.99693 0.99694 h -0.435032 c -0.402479,0 -0.439684,-0.0348 -0.497177,-0.46524 -0.05749,-0.43042 -0.0947,-0.46523 -0.497183,-0.46523 -0.402479,0 -0.439683,0.0348 -0.497183,0.46523 -0.05708,0.42757 -0.0999,0.46858 -0.528249,0.5065 -0.451881,0.04 -0.466111,0.057 -0.466111,0.5569 0,0.49991 0.01427,0.51691 0.466111,0.5569 0.442477,0.0391 0.466104,0.0649 0.466104,0.5065 0,0.44308 -0.02073,0.46524 -0.435032,0.46524 -0.412986,0 -0.43699,-0.0253 -0.473609,-0.49848 -0.03743,-0.48325 -0.05331,-0.49846 -0.52075,-0.49846 -0.467457,0 -0.483357,0.0152 -0.520757,0.49846 l -0.03857,0.49848 h -1.429404 -1.429392 l -0.06213,-0.46524 c -0.05749,-0.43043 -0.0947,-0.46524 -0.497176,-0.46524 -0.402479,0 -0.439684,0.0348 -0.497183,0.46524 -0.05749,0.43042 -0.0947,0.46524 -0.497177,0.46524 -0.402485,0 -0.439683,-0.0348 -0.497183,-0.46524 -0.05749,-0.43043 -0.0947,-0.46524 -0.497177,-0.46524 -0.402485,0 -0.439683,0.0348 -0.497183,0.46524 -0.05493,0.41145 -0.108955,0.47006 -0.466959,0.50695 -0.263474,0.0272 -0.428448,-0.0242 -0.472505,-0.14692 z m 3.92255,-4.60558 c 0,-0.50919 0.01292,-0.52482 0.466111,-0.56493 0.428361,-0.0379 0.471132,-0.0789 0.528255,-0.5065 0.05729,-0.42902 0.09897,-0.46848 0.535283,-0.50693 0.463405,-0.0408 0.472351,-0.0518 0.435032,-0.5317 -0.03487,-0.44853 -0.07493,-0.49562 -0.473138,-0.55646 -0.3998,-0.0611 -0.438156,-0.10683 -0.47361,-0.56493 l -0.03857,-0.49847 h 1.499048 1.499042 v -0.53972 -0.53972 l 0.466104,0.0413 c 0.442174,0.0391 0.46811,0.0672 0.505106,0.54724 0.03817,0.49558 0.0484,0.50516 0.497183,0.46524 0.419402,-0.0373 0.463439,-0.0801 0.520333,-0.50598 0.05688,-0.42586 0.100924,-0.46868 0.520326,-0.50599 0.448764,-0.0399 0.458989,-0.0304 0.497183,0.46524 0.03702,0.48 0.06294,0.5081 0.505106,0.54724 0.453207,0.0401 0.466104,0.0557 0.466104,0.56492 0,0.52234 0.0013,0.52369 0.497183,0.52369 h 0.497177 v -0.53171 -0.5317 h -0.497178 -0.497183 v -0.53169 -0.5317 h -0.497176 -0.497183 v -0.5317 -0.5317 h -1.499049 -1.499041 l 0.03857,-0.49847 c 0.03547,-0.45809 0.07381,-0.50384 0.473609,-0.56492 l 0.435039,-0.0665 0.03628,-1.03017 0.03628,-1.03016 h -0.494901 c -0.482173,0 -0.495898,0.0128 -0.533486,0.49847 -0.03648,0.4714 -0.06388,0.50071 -0.504682,0.53972 l -0.466104,0.0413 v 1.05537 1.05537 h -0.489678 c -0.476127,0 -0.490748,0.0138 -0.528255,0.49847 -0.03648,0.47139 -0.06388,0.50071 -0.504682,0.53972 l -0.466105,0.0413 v -0.53972 -0.53973 h -0.497183 -0.497183 v 0.53171 0.53169 h -0.504682 -0.504682 l 0.03857,0.49847 c 0.03648,0.4714 0.06388,0.50071 0.504682,0.53973 l 0.466104,0.0413 v 1.58707 1.58708 h -0.994352 -0.99436 v 0.53169 0.5317 h 0.99436 0.994359 z m 0,-4.26161 v -0.5317 h 0.497183 0.497183 v 0.5317 0.53169 h -0.497183 -0.497183 z m 3.065949,-0.62032 c -0.04557,-0.0487 -0.08286,-0.288 -0.08286,-0.5317 0,-0.42831 0.01656,-0.44308 0.497176,-0.44308 h 0.497183 v 0.5317 c 0,0.51397 -0.0138,0.5317 -0.414319,0.5317 -0.227872,0 -0.451605,-0.0399 -0.497177,-0.0886 z m -4.12246,2.74711 c 0,-0.44166 -0.02363,-0.46733 -0.466104,-0.5065 l -0.466104,-0.0413 v 0.54775 0.54774 l 0.466104,-0.0413 c 0.442483,-0.0391 0.466104,-0.0649 0.466104,-0.50649 z m 7.074144,6.73084 c -0.03911,-0.10901 -0.05271,-0.33714 -0.03022,-0.50695 0.03386,-0.25591 0.115356,-0.30875 0.475939,-0.30875 0.414312,0 0.435032,0.0222 0.435032,0.46523 0,0.42793 -0.03245,0.46859 -0.404815,0.50696 -0.271472,0.028 -0.428247,-0.0235 -0.475939,-0.15649 z m 1.993626,0.0137 c -0.0342,-0.0953 -0.04692,-1.27798 -0.0282,-2.62813 l 0.03399,-2.45483 h 2.423758 2.423751 v 2.59203 2.59203 l -2.395553,0.0361 c -1.878916,0.0283 -2.408955,-0.001 -2.457731,-0.13721 z m 3.858932,-2.49093 v -1.52863 h -1.429398 -1.429392 l -0.03568,1.38672 c -0.01966,0.76269 -0.0067,1.46751 0.02874,1.56624 0.04995,0.13923 0.378717,0.17107 1.465068,0.14191 l 1.400655,-0.0376 z m -1.87512,0.35047 c -0.03911,-0.10902 -0.05271,-0.33715 -0.03022,-0.50696 0.03393,-0.25591 0.115357,-0.30875 0.475932,-0.30875 0.41432,0 0.435032,0.0222 0.435032,0.46524 0,0.42793 -0.03244,0.46858 -0.404808,0.50696 -0.271471,0.028 -0.428246,-0.0236 -0.475938,-0.15649 z M 11.792844,273.66874 c -0.03419,-0.0953 -0.04692,-1.27798 -0.0282,-2.62814 l 0.03399,-2.45482 h 2.423757 2.423752 v 2.59203 2.59203 l -2.395547,0.0361 c -1.878923,0.0283 -2.408962,-0.001 -2.457738,-0.13721 z m 3.858925,-2.49093 v -1.52863 H 14.222371 12.79298 l -0.03568,1.38671 c -0.01966,0.7627 -0.0067,1.46751 0.02874,1.56624 0.04995,0.13924 0.37871,0.17108 1.465062,0.14191 l 1.400655,-0.0376 z m -1.875113,0.35046 c -0.03911,-0.10901 -0.05271,-0.33714 -0.03022,-0.50696 0.03393,-0.2559 0.115364,-0.30874 0.475939,-0.30874 0.414319,0 0.435032,0.0222 0.435032,0.46524 0,0.42792 -0.03245,0.46858 -0.404814,0.50696 -0.271465,0.028 -0.42824,-0.0235 -0.475933,-0.1565 z m 9.948517,2.14047 c -0.0342,-0.0953 -0.04692,-1.27798 -0.0282,-2.62814 l 0.03399,-2.45482 h 2.423758 2.423751 v 2.59203 2.59203 l -2.395553,0.0361 c -1.878916,0.0283 -2.408955,-0.001 -2.457731,-0.13721 z m 3.858932,-2.49093 v -1.52863 h -1.429398 -1.429392 l -0.03568,1.38671 c -0.01966,0.7627 -0.0067,1.46751 0.02874,1.56624 0.04995,0.13924 0.378717,0.17108 1.465068,0.14191 l 1.400655,-0.0376 z m -1.87512,0.35046 c -0.03911,-0.10901 -0.05271,-0.33714 -0.03022,-0.50696 0.03393,-0.2559 0.115357,-0.30874 0.475932,-0.30874 0.41432,0 0.435032,0.0222 0.435032,0.46524 0,0.42792 -0.03244,0.46858 -0.404808,0.50696 -0.271471,0.028 -0.428246,-0.0235 -0.475938,-0.1565 z m -16.4011406,-2.1106 c -0.03595,-0.10011 -0.04954,-0.9264 -0.03022,-1.8362 l 0.03507,-1.65418 h 1.6779826 1.67799 v 0.46523 0.46524 l -1.180807,0.0665 -1.180807,0.0665 -0.06213,1.26278 -0.06213,1.26279 -0.4048076,0.0417 c -0.257443,0.0265 -0.428596,-0.0245 -0.470129,-0.1403 z m 20.8879126,0.007 c -0.03244,-0.0961 -0.074,-0.68309 -0.09237,-1.30452 l -0.03339,-1.12985 -1.1808,-0.0665 -1.180807,-0.0665 v -0.46523 -0.46524 h 1.677983 1.677983 v 1.79448 1.79448 l -0.404814,0.0417 c -0.251385,0.026 -0.427163,-0.0245 -0.463789,-0.13292 z"
       style="fill:#212121;stroke-width:0.12853742" />
  </g>
</svg>
