<?xml version="1.0" encoding="UTF-8" standalone="no"?>
<!-- Created with Inkscape (http://www.inkscape.org/) -->

<svg
   xmlns:dc="http://purl.org/dc/elements/1.1/"
   xmlns:cc="http://creativecommons.org/ns#"
   xmlns:rdf="http://www.w3.org/1999/02/22-rdf-syntax-ns#"
   xmlns:svg="http://www.w3.org/2000/svg"
   xmlns="http://www.w3.org/2000/svg"
   xmlns:sodipodi="http://sodipodi.sourceforge.net/DTD/sodipodi-0.dtd"
   xmlns:inkscape="http://www.inkscape.org/namespaces/inkscape"
   width="150"
   height="151"
   viewBox="0 0 39.6875 39.952082"
   version="1.1"
   id="svg53"
   inkscape:version="0.92.1 r15371"
   sodipodi:docname="transfer.svg">
  <defs
     id="defs47" />
  <sodipodi:namedview
     id="base"
     pagecolor="#ffffff"
     bordercolor="#666666"
     borderopacity="1.0"
     inkscape:pageopacity="0.0"
     inkscape:pageshadow="2"
     inkscape:zoom="1.979899"
     inkscape:cx="172.0611"
     inkscape:cy="51.338488"
     inkscape:document-units="px"
     inkscape:current-layer="layer1"
     showgrid="false"
     units="px"
     inkscape:window-width="1366"
     inkscape:window-height="705"
     inkscape:window-x="-8"
     inkscape:window-y="-8"
     inkscape:window-maximized="1" />
  <metadata
     id="metadata50">
    <rdf:RDF>
      <cc:Work
         rdf:about="">
        <dc:format>image/svg+xml</dc:format>
        <dc:type
           rdf:resource="http://purl.org/dc/dcmitype/StillImage" />
        <dc:title></dc:title>
      </cc:Work>
    </rdf:RDF>
  </metadata>
  <g
     inkscape:label="Layer 1"
     inkscape:groupmode="layer"
     id="layer1"
     transform="translate(0,-257.04793)">
    <path
       inkscape:connector-curvature="0"
       id="path4356"
       d="m 17.171447,296.78764 c -2.29061,-0.30809 -5.407451,-1.38217 -7.4616245,-2.57134 -2.599022,-1.50457 -5.989905,-5.02992 -7.312873,-7.60287 -1.56021499,-3.03435 -2.21969999,-5.37429 -2.38927299,-8.47748 -0.703191,-12.86838 10.78000149,-23.03826 23.30703049,-20.64144 4.014673,0.76813 7.204445,2.46336 10.233593,5.43871 5.267579,5.17404 7.21401,12.74177 5.113936,19.88301 -0.602549,2.04896 -2.279365,5.15145 -3.733734,6.90827 -4.249145,5.13279 -11.289161,7.93307 -17.757055,7.06314 z"
       style="fill:#d1dcec;stroke-width:0.26458335" />
    <g
       id="g4426"
       transform="matrix(0.64236658,0.00604694,-0.00691111,0.56204464,8.4406663,268.49996)">
      <g
         id="g4418">
        <g
           id="g4416">
          <path
             id="path4414"
             d="m 33,18 h -7 c -0.553,0 -1,0.447 -1,1 0,0.552 0.447,1 1,1 h 6 V 31 H 12 v -2 c 0,-0.553 -0.447,-1 -1,-1 -0.553,0 -1,0.447 -1,1 v 3 c 0,0.552 0.447,1 1,1 h 22 c 0.552,0 1,-0.448 1,-1 V 19 c 0,-0.553 -0.448,-1 -1,-1 z M 8,14 H 2 V 3 h 20 v 2 c 0,0.552 0.447,1 1,1 0.553,0 1,-0.448 1,-1 V 2 C 24,1.447 23.553,1 23,1 H 1 C 0.447,1 0,1.447 0,2 v 13 c 0,0.553 0.447,1 1,1 H 8 C 8.552,16 9,15.553 9,15 9,14.447 8.552,14 8,14 Z"
             inkscape:connector-curvature="0"
             style="fill-rule:evenodd" />
        </g>
      </g>
      <g
         id="g4424">
        <g
           id="g4422">
          <path
             id="path4420"
             d="m 30.931,11.657 c -0.022,-0.21 -0.085,-0.414 -0.247,-0.575 L 27.856,8.254 c -0.391,-0.391 -1.023,-0.391 -1.414,0 -0.391,0.391 -0.391,1.023 0,1.414 L 27.773,11 H 11 c -0.553,0 -1,0.447 -1,1 0,0.552 0.447,1 1,1 h 16.711 l -1.269,1.27 c -0.391,0.391 -0.391,1.023 0,1.414 0.391,0.391 1.023,0.391 1.414,0 l 2.828,-2.828 c 0.143,-0.143 0.211,-0.317 0.244,-0.499 C 30.971,12.245 31,12.126 31,12 31,11.878 30.971,11.765 30.931,11.657 Z M 22,20.938 H 5.289 l 1.27,-1.269 c 0.391,-0.391 0.391,-1.023 0,-1.414 -0.391,-0.391 -1.023,-0.391 -1.414,0 L 2.317,21.083 C 2.174,21.225 2.106,21.399 2.073,21.582 2.029,21.692 2,21.81 2,21.938 c 0,0.122 0.029,0.235 0.069,0.343 0.023,0.21 0.085,0.413 0.247,0.575 l 2.828,2.828 c 0.391,0.391 1.024,0.391 1.414,0 0.391,-0.391 0.391,-1.023 0,-1.414 L 5.226,22.938 H 22 c 0.553,0 1,-0.448 1,-1 0,-0.553 -0.447,-1 -1,-1 z"
             inkscape:connector-curvature="0"
             style="fill-rule:evenodd" />
        </g>
      </g>
    </g>
  </g>
</svg>
