<?xml version="1.0" encoding="UTF-8"?>
<!-- Created with Inkscape (http://www.inkscape.org/) -->
<svg width="45" height="45" version="1.1" viewBox="0 0 11.90625 11.90625" xmlns="http://www.w3.org/2000/svg" xmlns:cc="http://creativecommons.org/ns#" xmlns:dc="http://purl.org/dc/elements/1.1/" xmlns:rdf="http://www.w3.org/1999/02/22-rdf-syntax-ns#">
 <metadata>
  <rdf:RDF>
   <cc:Work rdf:about="">
    <dc:format>image/svg+xml</dc:format>
    <dc:type rdf:resource="http://purl.org/dc/dcmitype/StillImage"/>
    <dc:title/>
   </cc:Work>
  </rdf:RDF>
 </metadata>
 <path d="m-50.649-17.489v-17.33h34.66v34.66h-34.66z" fill="#fefefe" stroke-width=".26458"/>
 <path d="m5.2126 11.792c-0.68693-0.091577-1.6216-0.41084-2.2377-0.76431-0.77942-0.44722-1.7963-1.4951-2.1931-2.2599-0.46789-0.90194-0.66566-1.5975-0.71652-2.5199-0.21088-3.825 3.2328-6.848 6.9895-6.1355 1.204 0.22832 2.1605 0.73222 3.0689 1.6166 1.5797 1.5379 2.1634 3.7874 1.5336 5.9101-0.1807 0.60904-0.68356 1.5312-1.1197 2.0534-1.2743 1.5257-3.3855 2.358-5.3251 2.0995z" fill="#d1dcec" stroke-width=".078995"/>
 <g transform="matrix(.014438 0 0 .01454 2.5623 2.1635)">
  <path d="m348 350.63c30.552-28.736 48-68.84 48-110.63 0-43.144-18.44-84.416-50.592-113.22-32.592-29.208-74.712-42.632-118.58-37.832-71.096 7.808-128.86 67.6-134.37 139.09-3.576 46.368 13.712 90.84 47.536 122.6v25.368h-24v16h24v16h-24v16h24v16h-24v16h24.808c3.72 18.232 19.872 32 39.192 32h128c19.312 0 35.472-13.768 39.192-32h24.808v-16h-24v-16h24v-16h-24v-16h24v-16h-24zm-16 57.368h-144v16h144v16h-16v16h14.528c-3.312 9.288-12.112 16-22.528 16h-128c-10.416 0-19.216-6.712-22.528-16h142.53v-16h-144v-16h16v-16h-16v-16h176zm2.664-66.84-2.664 2.384v32.456h-176v-32.456l-2.664-2.384c-31.832-28.544-48.208-69.336-44.928-111.9 4.928-63.944 56.592-117.42 120.17-124.41 5.24-0.576 10.448-0.856 15.616-0.856 33.576 0 65.264 12.048 90.536 34.696 28.776 25.784 45.272 62.712 45.272 101.31 0 38.448-16.528 75.32-45.336 101.16z"/>
  <rect x="236" width="16" height="32"/>
  <rect transform="matrix(.9239 -.3827 .3827 .9239 -5.8028 66.56)" x="156.4" y="15.865" width="16" height="64.002"/>
  <rect transform="matrix(.3827 -.9239 .9239 .3827 -116.2 146.91)" x="43.836" y="128.4" width="16" height="64.002"/>
  <rect x="4" y="232" width="64" height="16"/>
  <rect transform="matrix(.9238 -.3828 .3828 .9238 -118.4 44.185)" x="19.829" y="311.59" width="63.998" height="16"/>
  <rect transform="matrix(.3827 -.9239 .9239 .3827 -25.994 600.26)" x="428.18" y="287.58" width="16" height="64.002"/>
  <rect x="452" y="232" width="32" height="16"/>
  <rect transform="matrix(.9239 -.3827 .3827 .9239 -28.19 179.13)" x="404.17" y="152.42" width="64.002" height="16"/>
  <rect transform="matrix(.7071 -.7071 .7071 .7071 48.811 303.74)" x="359.05" y="84.948" width="63.999" height="16"/>
  <rect transform="matrix(.3828 -.9238 .9238 .3828 155.52 328.46)" x="291.59" y="39.84" width="63.998" height="16"/>
  <path d="m260 232h-32c-13.232 0-24-10.768-24-24s10.768-24 24-24h32c13.232 0 24 10.768 24 24h16c0-22.056-17.944-40-40-40h-8v-24h-16v24h-8c-22.056 0-40 17.944-40 40s17.944 40 40 40h32c13.232 0 24 10.768 24 24s-10.768 24-24 24h-32c-13.232 0-24-10.768-24-24h-16c0 22.056 17.944 40 40 40h8v24h16v-24h8c22.056 0 40-17.944 40-40s-17.944-40-40-40z"/>
  <rect x="420" y="232" width="16" height="16"/>
  <rect x="236" y="48" width="16" height="16"/>
  <rect x="332" y="232" width="16" height="16"/>
  <rect x="140" y="232" width="16" height="16"/>
  <rect transform="matrix(.7071 -.7071 .7071 .7071 -41.366 105.52)" x="98.689" y="84.513" width="16" height="36.36"/>
  <rect transform="matrix(.7071 -.7071 .7071 .7071 -29.954 77.972)" x="71.144" y="68.28" width="16" height="13.728"/>
 </g>
</svg>
