<?xml version="1.0" encoding="UTF-8"?>
<!-- Created with Inkscape (http://www.inkscape.org/) -->
<svg width="45" height="45" version="1.1" viewBox="0 0 11.90625 11.90625" xmlns="http://www.w3.org/2000/svg" xmlns:cc="http://creativecommons.org/ns#" xmlns:dc="http://purl.org/dc/elements/1.1/" xmlns:rdf="http://www.w3.org/1999/02/22-rdf-syntax-ns#" xmlns:xlink="http://www.w3.org/1999/xlink">
 <metadata>
  <rdf:RDF>
   <cc:Work rdf:about="">
    <dc:format>image/svg+xml</dc:format>
    <dc:type rdf:resource="http://purl.org/dc/dcmitype/StillImage"/>
    <dc:title/>
   </cc:Work>
  </rdf:RDF>
 </metadata>
 <path d="m-50.649-17.489v-17.33h34.66v34.66h-34.66z" fill="#fefefe" stroke-width=".26458"/>
 <path d="m5.2126 11.792c-0.68693-0.091577-1.6216-0.41084-2.2377-0.76431-0.77942-0.44722-1.7963-1.4951-2.1931-2.2599-0.46789-0.90194-0.66566-1.5975-0.71652-2.5199-0.21088-3.825 3.2328-6.848 6.9895-6.1355 1.204 0.22832 2.1605 0.73222 3.0689 1.6166 1.5797 1.5379 2.1634 3.7874 1.5336 5.9101-0.1807 0.60904-0.68356 1.5312-1.1197 2.0534-1.2743 1.5257-3.3855 2.358-5.3251 2.0995z" fill="#d1dcec" stroke-width=".078995"/>
 <image x="2.417" y="3.4435" width="7.6948" height="5.7233" preserveAspectRatio="none" xlink:href="file:///F:/documents/Compressed/893767-financial-strategy/893767-financial-strategy/png/012-investment.png"/>
</svg>
