<?xml version="1.0" encoding="UTF-8" standalone="no"?>
<!-- Created with Inkscape (http://www.inkscape.org/) -->

<svg
   xmlns:dc="http://purl.org/dc/elements/1.1/"
   xmlns:cc="http://creativecommons.org/ns#"
   xmlns:rdf="http://www.w3.org/1999/02/22-rdf-syntax-ns#"
   xmlns:svg="http://www.w3.org/2000/svg"
   xmlns="http://www.w3.org/2000/svg"
   xmlns:sodipodi="http://sodipodi.sourceforge.net/DTD/sodipodi-0.dtd"
   xmlns:inkscape="http://www.inkscape.org/namespaces/inkscape"
   width="150"
   height="151"
   viewBox="0 0 39.6875 39.952082"
   version="1.1"
   id="svg53"
   inkscape:version="0.92.1 r15371"
   sodipodi:docname="bill.svg">
  <defs
     id="defs47" />
  <sodipodi:namedview
     id="base"
     pagecolor="#ffffff"
     bordercolor="#666666"
     borderopacity="1.0"
     inkscape:pageopacity="0.0"
     inkscape:pageshadow="2"
     inkscape:zoom="1.979899"
     inkscape:cx="172.0611"
     inkscape:cy="51.338488"
     inkscape:document-units="px"
     inkscape:current-layer="layer1"
     showgrid="false"
     units="px"
     inkscape:window-width="1366"
     inkscape:window-height="705"
     inkscape:window-x="-8"
     inkscape:window-y="-8"
     inkscape:window-maximized="1" />
  <metadata
     id="metadata50">
    <rdf:RDF>
      <cc:Work
         rdf:about="">
        <dc:format>image/svg+xml</dc:format>
        <dc:type
           rdf:resource="http://purl.org/dc/dcmitype/StillImage" />
        <dc:title></dc:title>
      </cc:Work>
    </rdf:RDF>
  </metadata>
  <g
     inkscape:label="Layer 1"
     inkscape:groupmode="layer"
     id="layer1"
     transform="translate(0,-257.04793)">
    <path
       inkscape:connector-curvature="0"
       id="path4356"
       d="m 17.171447,296.78764 c -2.29061,-0.30809 -5.407451,-1.38217 -7.4616245,-2.57134 -2.599022,-1.50457 -5.989905,-5.02992 -7.312873,-7.60287 -1.56021499,-3.03435 -2.21969999,-5.37429 -2.38927299,-8.47748 -0.703191,-12.86838 10.78000149,-23.03826 23.30703049,-20.64144 4.014673,0.76813 7.204445,2.46336 10.233593,5.43871 5.267579,5.17404 7.21401,12.74177 5.113936,19.88301 -0.602549,2.04896 -2.279365,5.15145 -3.733734,6.90827 -4.249145,5.13279 -11.289161,7.93307 -17.757055,7.06314 z"
       style="fill:#d1dcec;stroke-width:0.26458335" />
    <g
       id="g4484"
       transform="matrix(0.64119038,0,0,0.62436922,5.6717563,263.08504)">
      <g
         id="g4476">
        <g
           id="g4474">
          <path
             id="path4472"
             d="M 43,9 H 1 C 0.447,9 0,9.447 0,10 v 24 c 0,0.552 0.447,1 1,1 h 42 c 0.552,0 1,-0.448 1,-1 V 10 C 44,9.447 43.552,9 43,9 Z M 42,33 H 2 V 11 h 40 z"
             inkscape:connector-curvature="0" />
        </g>
      </g>
      <g
         id="g4482">
        <g
           id="g4480">
          <path
             id="path4478"
             d="m 22,17 c -2.762,0 -5,2.238 -5,5 0,2.762 2.238,5 5,5 2.762,0 5,-2.238 5,-5 0,-2.762 -2.238,-5 -5,-5 z m 0,8 c -1.657,0 -3,-1.343 -3,-3 0,-1.657 1.343,-3 3,-3 1.657,0 3,1.343 3,3 0,1.657 -1.343,3 -3,3 z m 17,-8 c -1.657,0 -3,-1.343 -3,-3 0,-0.553 -0.448,-1 -1,-1 H 9 c -0.553,0 -1,0.447 -1,1 0,1.657 -1.343,3 -3,3 -0.553,0 -1,0.447 -1,1 v 8 c 0,0.552 0.447,1 1,1 1.657,0 3,1.343 3,3 0,0.552 0.447,1 1,1 h 26 c 0.552,0 1,-0.448 1,-1 0,-1.657 1.343,-3 3,-3 0.552,0 1,-0.448 1,-1 v -8 c 0,-0.553 -0.448,-1 -1,-1 z m -1,8.109 C 36.043,25.507 34.498,27.042 34.101,29 H 9.899 C 9.502,27.042 7.957,25.508 6,25.109 V 18.89 C 7.957,18.492 9.502,16.958 9.899,15 H 34.1 c 0.397,1.958 1.942,3.492 3.899,3.891 v 6.218 z"
             inkscape:connector-curvature="0" />
        </g>
      </g>
    </g>
  </g>
</svg>
