<?xml version="1.0" encoding="iso-8859-1"?>
<!-- Generator: Adobe Illustrator 19.0.0, SVG Export Plug-In . SVG Version: 6.00 Build 0)  -->
<svg version="1.1" id="Capa_1" xmlns="http://www.w3.org/2000/svg" xmlns:xlink="http://www.w3.org/1999/xlink" x="0px" y="0px"
	 viewBox="0 0 488 488" style="enable-background:new 0 0 488 488;" xml:space="preserve">
<g>
	<g>
		<path d="M348,350.632c30.552-28.736,48-68.84,48-110.632c0-43.144-18.44-84.416-50.592-113.224
			c-32.592-29.208-74.712-42.632-118.576-37.832c-71.096,7.808-128.856,67.6-134.368,139.088
			c-3.576,46.368,13.712,90.84,47.536,122.6V376h-24v16h24v16h-24v16h24v16h-24v16h24.808c3.72,18.232,19.872,32,39.192,32h128
			c19.312,0,35.472-13.768,39.192-32H372v-16h-24v-16h24v-16h-24v-16h24v-16h-24V350.632z M332,408H188v16h144v16h-16v16h14.528
			c-3.312,9.288-12.112,16-22.528,16H180c-10.416,0-19.216-6.712-22.528-16H300v-16H156v-16h16v-16h-16v-16h176V408z
			 M334.664,341.16L332,343.544V376H156v-32.456l-2.664-2.384c-31.832-28.544-48.208-69.336-44.928-111.904
			c4.928-63.944,56.592-117.424,120.168-124.408c5.24-0.576,10.448-0.856,15.616-0.856c33.576,0,65.264,12.048,90.536,34.696
			C363.504,164.472,380,201.4,380,240C380,278.448,363.472,315.32,334.664,341.16z"/>
	</g>
</g>
<g>
	<g>
		<rect x="236" width="16" height="32"/>
	</g>
</g>
<g>
	<g>
		<rect x="156.404" y="15.865" transform="matrix(0.9239 -0.3827 0.3827 0.9239 -5.8028 66.56)" width="16" height="64.002"/>
	</g>
</g>
<g>
	<g>
		<rect x="43.836" y="128.405" transform="matrix(0.3827 -0.9239 0.9239 0.3827 -116.1961 146.9107)" width="16" height="64.002"/>
	</g>
</g>
<g>
	<g>
		<rect x="4" y="232" width="64" height="16"/>
	</g>
</g>
<g>
	<g>
		<rect x="19.829" y="311.593" transform="matrix(0.9238 -0.3828 0.3828 0.9238 -118.3956 44.1846)" width="63.998" height="16"/>
	</g>
</g>
<g>
	<g>
		<rect x="428.179" y="287.578" transform="matrix(0.3827 -0.9239 0.9239 0.3827 -25.9936 600.2557)" width="16" height="64.002"/>
	</g>
</g>
<g>
	<g>
		<rect x="452" y="232" width="32" height="16"/>
	</g>
</g>
<g>
	<g>
		<rect x="404.171" y="152.425" transform="matrix(0.9239 -0.3827 0.3827 0.9239 -28.1903 179.1307)" width="64.002" height="16"/>
	</g>
</g>
<g>
	<g>
		<rect x="359.047" y="84.948" transform="matrix(0.7071 -0.7071 0.7071 0.7071 48.811 303.7357)" width="63.999" height="16"/>
	</g>
</g>
<g>
	<g>
		<rect x="291.589" y="39.84" transform="matrix(0.3828 -0.9238 0.9238 0.3828 155.5191 328.465)" width="63.998" height="16"/>
	</g>
</g>
<g>
	<g>
		<path d="M260,232h-32c-13.232,0-24-10.768-24-24s10.768-24,24-24h32c13.232,0,24,10.768,24,24h16c0-22.056-17.944-40-40-40h-8v-24
			h-16v24h-8c-22.056,0-40,17.944-40,40c0,22.056,17.944,40,40,40h32c13.232,0,24,10.768,24,24s-10.768,24-24,24h-32
			c-13.232,0-24-10.768-24-24h-16c0,22.056,17.944,40,40,40h8v24h16v-24h8c22.056,0,40-17.944,40-40
			C300,249.944,282.056,232,260,232z"/>
	</g>
</g>
<g>
	<g>
		<rect x="420" y="232" width="16" height="16"/>
	</g>
</g>
<g>
	<g>
		<rect x="236" y="48" width="16" height="16"/>
	</g>
</g>
<g>
	<g>
		<rect x="332" y="232" width="16" height="16"/>
	</g>
</g>
<g>
	<g>
		<rect x="140" y="232" width="16" height="16"/>
	</g>
</g>
<g>
	<g>
		<rect x="98.689" y="84.513" transform="matrix(0.7071 -0.7071 0.7071 0.7071 -41.3665 105.5187)" width="16" height="36.36"/>
	</g>
</g>
<g>
	<g>
		<rect x="71.144" y="68.28" transform="matrix(0.7071 -0.7071 0.7071 0.7071 -29.9541 77.9723)" width="16" height="13.728"/>
	</g>
</g>
<g>
</g>
<g>
</g>
<g>
</g>
<g>
</g>
<g>
</g>
<g>
</g>
<g>
</g>
<g>
</g>
<g>
</g>
<g>
</g>
<g>
</g>
<g>
</g>
<g>
</g>
<g>
</g>
<g>
</g>
</svg>
