<?xml version="1.0" encoding="iso-8859-1"?>
<!-- Generator: Adobe Illustrator 19.0.0, SVG Export Plug-In . SVG Version: 6.00 Build 0)  -->
<svg version="1.1" id="Capa_1" xmlns="http://www.w3.org/2000/svg" xmlns:xlink="http://www.w3.org/1999/xlink" x="0px" y="0px"
	 viewBox="0 0 496 496" style="enable-background:new 0 0 496 496;" fill="#ed3063" xml:space="preserve">
<g>
	<g>
		<rect x="144" y="448" width="64" height="16"/>
	</g>
</g>
<g>
	<g>
		<path d="M352,112V56c0-30.872-25.128-56-56-56H56C25.128,0,0,25.128,0,56v384c0,30.872,25.128,56,56,56h240
			c30.872,0,56-25.128,56-56v-72h144V112H352z M56,16h240c19.312,0,35.472,13.768,39.192,32H16.808C20.528,29.768,36.688,16,56,16z
			 M336,440c0,22.056-17.944,40-40,40H56c-22.056,0-40-17.944-40-40v-8h320V440z M336,416H16V64h320v48H32v256h304V416z M480,352H48
			V128h432V352z"/>
	</g>
</g>
<g>
	<g>
		<path d="M136,232c-8.824,0-16-7.176-16-16c0-8.824,7.176-16,16-16c8.824,0,16,7.176,16,16h16c0-14.872-10.232-27.288-24-30.864
			V168h-16v17.136c-13.768,3.576-24,15.992-24,30.864c0,17.648,14.352,32,32,32c8.824,0,16,7.176,16,16c0,8.824-7.176,16-16,16
			c-8.824,0-16-7.176-16-16h-16c0,14.872,10.232,27.288,24,30.864V312h16v-17.136c13.768-3.576,24-15.992,24-30.864
			C168,246.352,153.648,232,136,232z"/>
	</g>
</g>
<g>
	<g>
		<rect x="264" y="184" width="200" height="16"/>
	</g>
</g>
<g>
	<g>
		<rect x="296" y="216" width="168" height="16"/>
	</g>
</g>
<g>
	<g>
		<rect x="264" y="248" width="200" height="16"/>
	</g>
</g>
<g>
	<g>
		<rect x="264" y="280" width="168" height="16"/>
	</g>
</g>
<g>
	<g>
		<rect x="64" y="232" width="16" height="16"/>
	</g>
</g>
<g>
	<g>
		<rect x="192" y="232" width="16" height="16"/>
	</g>
</g>
<g>
	<g>
		<rect x="448" y="280" width="16" height="16"/>
	</g>
</g>
<g>
	<g>
		<rect x="264" y="216" width="16" height="16"/>
	</g>
</g>
<g>
</g>
<g>
</g>
<g>
</g>
<g>
</g>
<g>
</g>
<g>
</g>
<g>
</g>
<g>
</g>
<g>
</g>
<g>
</g>
<g>
</g>
<g>
</g>
<g>
</g>
<g>
</g>
<g>
</g>
</svg>
